<?xml version="1.0" encoding="iso-8859-1"?>
<!-- Generator: Adobe Illustrator 18.0.0, SVG Export Plug-In . SVG Version: 6.00 Build 0)  -->
<!DOCTYPE svg PUBLIC "-//W3C//DTD SVG 1.1//EN" "http://www.w3.org/Graphics/SVG/1.1/DTD/svg11.dtd">
<svg version="1.1" id="Capa_1" xmlns="http://www.w3.org/2000/svg" xmlns:xlink="http://www.w3.org/1999/xlink" x="0px" y="0px"
	 viewBox="0 0 385.307 385.307" style="enable-background:new 0 0 385.307 385.307;" xml:space="preserve">
<g>
	<path d="M336.653,35.306H217.284V10c0-5.523-4.477-10-10-10h-29.262c-5.523,0-10,4.477-10,10v25.306H48.653
		c-5.523,0-10,4.477-10,10v202.001c0,5.523,4.477,10,10,10h120.864v118c0,5.523,4.477,10,10,10h26.271c5.523,0,10-4.477,10-10v-118
		h120.864c5.523,0,10-4.477,10-10V45.306C346.653,39.783,342.176,35.306,336.653,35.306z M326.653,237.307h-268V55.306h109.369
		h49.262h109.369V237.307z"/>
	<g>
		<path d="M168.528,116.825c-0.514-1.363-1.819-2.266-3.275-2.266c-0.002,0-0.005,0-0.007,0l-5.898,0.012
			c-1.459,0.003-2.764,0.911-3.273,2.279l-20.501,55.082c-0.4,1.074-0.248,2.276,0.406,3.218c0.654,0.941,1.728,1.503,2.874,1.503
			h5.336c1.462,0,2.77-0.909,3.28-2.279l6.063-16.29h17.72l6.145,16.304c0.514,1.363,1.818,2.266,3.275,2.266h5.343
			c0.007,0,0.013,0,0.02,0c1.933,0,3.5-1.567,3.5-3.5c0-0.565-0.134-1.1-0.373-1.573L168.528,116.825z M157.997,146.084
			l4.339-11.658l4.393,11.658H157.997z"/>
		<path d="M220.286,114.32h-22.171c-1.933,0-3.5,1.567-3.5,3.5v54.999c0,1.933,1.567,3.5,3.5,3.5h22.171
			c17.43,0,31.609-13.89,31.609-30.964C251.895,128.243,237.716,114.32,220.286,114.32z M220.286,164.319h-13.671V126.32h13.671
			c10.813,0,19.609,8.539,19.609,19.035C239.895,155.812,231.099,164.319,220.286,164.319z"/>
	</g>
</g>
<g>
</g>
<g>
</g>
<g>
</g>
<g>
</g>
<g>
</g>
<g>
</g>
<g>
</g>
<g>
</g>
<g>
</g>
<g>
</g>
<g>
</g>
<g>
</g>
<g>
</g>
<g>
</g>
<g>
</g>
</svg>
